<?xml version="1.0" standalone="no"?>
<!DOCTYPE svg PUBLIC "-//W3C//DTD SVG 20010904//EN"
 "http://www.w3.org/TR/2001/REC-SVG-20010904/DTD/svg10.dtd">
<svg version="1.0" xmlns="http://www.w3.org/2000/svg"
 width="300.000000pt" height="300.000000pt" viewBox="0 0 300.000000 300.000000"
 preserveAspectRatio="xMidYMid meet">
<metadata>
Created by potrace 1.11, written by Peter Selinger 2001-2013
</metadata>
<g transform="translate(0.000000,300.000000) scale(0.100000,-0.100000)"
fill="#000000" stroke="none">
<path d="M370 2315 l0 -315 315 0 315 0 0 315 0 315 -315 0 -315 0 0 -315z
m540 0 l0 -225 -225 0 -225 0 0 225 0 225 225 0 225 0 0 -225z"/>
<path d="M550 2315 l0 -135 135 0 135 0 0 135 0 135 -135 0 -135 0 0 -135z"/>
<path d="M1184 2616 c-3 -8 -4 -27 -2 -43 3 -26 7 -28 43 -28 l40 0 0 40 c0
39 -1 40 -38 43 -26 2 -39 -1 -43 -12z"/>
<path d="M1455 2618 c-2 -7 -5 -26 -7 -43 -3 -27 -7 -31 -43 -35 -38 -5 -40
-7 -45 -45 l-5 -40 -85 0 -85 0 -5 40 c-5 39 -6 40 -45 40 l-40 0 0 -85 0 -85
40 -5 c38 -5 40 -7 45 -45 l5 -40 130 0 130 0 5 40 c5 38 7 40 45 45 38 5 40
7 45 45 5 39 6 40 45 40 39 0 40 -1 45 -40 5 -38 7 -40 45 -45 39 -5 40 -6 40
-45 l0 -40 -85 -5 -85 -5 0 -40 0 -40 85 -5 85 -5 5 -40 c5 -39 6 -40 45 -40
39 0 40 1 45 40 5 38 7 40 45 45 39 5 40 6 40 45 0 39 -1 40 -40 45 l-40 5 -5
85 -5 85 -40 5 c-38 5 -40 7 -45 45 l-5 40 -85 5 -85 5 -5 40 c-5 38 -7 40
-43 43 -24 2 -39 -1 -42 -10z"/>
<path d="M1724 2616 c-3 -8 -4 -27 -2 -43 3 -26 7 -28 43 -28 l40 0 0 40 c0
39 -1 40 -38 43 -26 2 -39 -1 -43 -12z"/>
<path d="M1990 2315 l0 -315 315 0 315 0 0 315 0 315 -315 0 -315 0 0 -315z
m540 0 l0 -225 -225 0 -225 0 0 225 0 225 225 0 225 0 0 -225z"/>
<path d="M2170 2315 l0 -135 135 0 135 0 0 135 0 135 -135 0 -135 0 0 -135z"/>
<path d="M1814 2526 c-3 -8 -4 -27 -2 -43 3 -26 7 -28 43 -28 l40 0 0 40 c0
39 -1 40 -38 43 -26 2 -39 -1 -43 -12z"/>
<path d="M1095 2258 c-3 -8 -4 -88 -3 -178 l3 -165 85 0 85 0 0 40 c0 39 -1
40 -40 45 -39 5 -40 6 -40 45 0 39 1 40 40 45 39 5 40 6 40 45 0 39 -1 40 -40
45 -38 5 -40 7 -45 45 -5 38 -7 40 -43 43 -24 2 -39 -1 -42 -10z"/>
<path d="M1364 2166 c-3 -8 -4 -27 -2 -43 3 -26 7 -28 43 -28 l40 0 0 40 c0
39 -1 40 -38 43 -26 2 -39 -1 -43 -12z"/>
<path d="M1274 2076 c-3 -8 -4 -27 -2 -43 3 -26 7 -28 43 -28 l40 0 0 40 c0
39 -1 40 -38 43 -26 2 -39 -1 -43 -12z"/>
<path d="M1455 2078 c-3 -8 -4 -68 -3 -134 l3 -119 40 0 c39 0 40 1 45 40 5
38 7 40 45 45 39 5 40 6 40 45 0 39 -1 40 -40 45 -38 5 -40 7 -45 45 -5 38 -7
40 -43 43 -24 2 -39 -1 -42 -10z"/>
<path d="M1634 2076 c-3 -8 -4 -27 -2 -43 3 -26 7 -28 43 -28 l40 0 0 40 c0
39 -1 40 -38 43 -26 2 -39 -1 -43 -12z"/>
<path d="M1814 2076 c-3 -8 -4 -27 -2 -43 3 -26 7 -28 43 -28 l40 0 0 40 c0
39 -1 40 -38 43 -26 2 -39 -1 -43 -12z"/>
<path d="M375 1897 c-3 -7 -4 -67 -3 -133 l3 -119 40 0 40 0 5 85 5 85 40 5
c39 5 40 6 40 45 l0 40 -83 3 c-62 2 -84 -1 -87 -11z"/>
<path d="M645 1898 c-2 -7 -5 -26 -7 -43 -3 -27 -7 -31 -43 -35 l-40 -5 0
-130 0 -130 40 0 40 0 5 85 5 85 40 5 40 5 0 85 0 85 -38 3 c-24 2 -39 -1 -42
-10z"/>
<path d="M914 1896 c-3 -8 -4 -27 -2 -43 3 -24 8 -29 43 -33 39 -5 40 -6 40
-45 l0 -40 -40 0 c-39 0 -40 1 -45 40 -5 39 -6 40 -45 40 -39 0 -40 -1 -45
-40 -5 -38 -7 -40 -45 -45 -39 -5 -40 -6 -40 -45 l0 -40 175 -5 175 -5 0 -40
0 -40 -220 -5 -220 -5 0 -85 0 -85 40 -5 c38 -5 40 -7 45 -45 5 -39 6 -40 45
-40 l40 0 5 85 5 85 175 5 175 5 5 85 5 85 85 5 85 5 5 40 c5 38 7 40 45 45
39 5 40 6 40 45 0 39 -1 40 -40 45 -38 5 -40 7 -45 45 -5 39 -6 40 -45 40
l-40 0 -5 -85 -5 -85 -40 0 c-39 0 -40 1 -45 40 -5 38 -7 40 -45 45 -38 5 -40
7 -45 45 l-5 40 -83 3 c-65 2 -84 0 -88 -12z"/>
<path d="M1635 1898 c-2 -7 -5 -26 -7 -43 -3 -27 -7 -31 -43 -35 -39 -5 -40
-6 -40 -45 l0 -40 85 0 85 0 0 85 0 85 -38 3 c-24 2 -39 -1 -42 -10z"/>
<path d="M1995 1898 c-3 -7 -6 -47 -7 -88 l-3 -75 -40 -5 c-39 -5 -40 -6 -40
-45 0 -39 1 -40 40 -45 38 -5 40 -7 45 -45 5 -38 7 -40 45 -45 l40 -5 5 -85 5
-85 40 -5 c38 -5 40 -7 45 -45 l5 -40 85 0 85 0 0 40 c0 39 -1 40 -40 45 -38
5 -40 7 -45 45 -5 38 -7 40 -45 45 -39 5 -40 6 -40 45 0 39 1 40 40 45 39 5
40 6 40 45 0 39 -1 40 -40 45 -38 5 -40 7 -45 45 -5 38 -7 40 -45 45 -39 5
-40 6 -40 45 l0 40 40 0 c39 0 40 -1 45 -40 5 -39 6 -40 45 -40 l40 0 0 85 0
85 -128 3 c-96 2 -129 -1 -132 -10z"/>
<path d="M2354 1896 c-3 -8 -4 -27 -2 -43 3 -24 8 -29 43 -33 38 -5 40 -7 45
-45 5 -39 6 -40 45 -40 l40 0 0 85 0 85 -83 3 c-65 2 -84 0 -88 -12z"/>
<path d="M1814 1806 c-3 -8 -4 -27 -2 -43 3 -26 7 -28 43 -28 l40 0 0 40 c0
39 -1 40 -38 43 -26 2 -39 -1 -43 -12z"/>
<path d="M1454 1716 c-3 -8 -4 -27 -2 -43 3 -26 7 -28 43 -28 l40 0 0 40 c0
39 -1 40 -38 43 -26 2 -39 -1 -43 -12z"/>
<path d="M1724 1716 c-3 -8 -4 -27 -2 -43 3 -26 7 -28 43 -28 l40 0 0 40 c0
39 -1 40 -38 43 -26 2 -39 -1 -43 -12z"/>
<path d="M2264 1716 c-3 -8 -4 -27 -2 -43 l3 -28 85 0 85 0 0 40 0 40 -83 3
c-65 2 -84 0 -88 -12z"/>
<path d="M1544 1626 c-3 -8 -4 -27 -2 -43 3 -26 7 -28 43 -28 l40 0 0 40 c0
39 -1 40 -38 43 -26 2 -39 -1 -43 -12z"/>
<path d="M2535 1628 c-2 -7 -5 -26 -7 -43 l-3 -30 -85 -5 -85 -5 0 -85 0 -85
40 0 c39 0 40 1 45 40 l5 40 85 5 85 5 0 85 0 85 -38 3 c-24 2 -39 -1 -42 -10z"/>
<path d="M464 1537 c-3 -8 -4 -47 -2 -88 l3 -74 40 0 40 0 0 85 0 85 -38 3
c-25 2 -39 -1 -43 -11z"/>
<path d="M1814 1536 c-3 -8 -4 -27 -2 -43 3 -26 7 -28 43 -28 l40 0 0 40 c0
39 -1 40 -38 43 -26 2 -39 -1 -43 -12z"/>
<path d="M1274 1446 c-3 -8 -4 -27 -2 -43 3 -26 7 -28 43 -28 l40 0 0 40 c0
39 -1 40 -38 43 -26 2 -39 -1 -43 -12z"/>
<path d="M1635 1448 c-2 -7 -5 -26 -7 -43 -3 -27 -7 -31 -43 -35 -39 -5 -40
-6 -40 -45 l0 -40 85 0 85 0 5 40 c5 38 7 40 45 45 39 5 40 6 40 45 l0 40 -83
3 c-60 2 -83 -1 -87 -10z"/>
<path d="M374 1356 c-3 -8 -4 -27 -2 -43 3 -26 7 -28 43 -28 l40 0 0 40 c0 39
-1 40 -38 43 -26 2 -39 -1 -43 -12z"/>
<path d="M914 1356 c-3 -8 -4 -27 -2 -43 3 -26 7 -28 43 -28 l40 0 0 40 c0 39
-1 40 -38 43 -26 2 -39 -1 -43 -12z"/>
<path d="M1094 1356 c-3 -8 -4 -27 -2 -43 l3 -28 85 0 85 0 0 40 0 40 -83 3
c-65 2 -84 0 -88 -12z"/>
<path d="M1364 1356 c-3 -8 -4 -27 -2 -43 3 -26 7 -28 43 -28 l40 0 0 40 c0
39 -1 40 -38 43 -26 2 -39 -1 -43 -12z"/>
<path d="M1815 1358 c-3 -7 -6 -87 -7 -178 l-3 -165 -40 -5 c-39 -5 -40 -6
-40 -45 0 -39 1 -40 40 -45 l40 -5 0 -85 0 -85 -130 -5 -130 -5 0 -40 0 -40
85 -5 85 -5 0 -85 0 -85 -40 0 c-39 0 -40 1 -45 40 -5 38 -7 40 -45 45 -38 5
-40 7 -45 45 -5 38 -7 40 -45 45 l-40 5 -5 85 -5 85 -40 0 -40 0 -5 -130 -5
-130 -40 -5 -40 -5 0 -85 0 -85 40 0 c39 0 40 1 45 40 5 39 6 40 45 40 39 0
40 -1 45 -40 l5 -40 175 0 175 0 5 40 c5 38 7 40 45 45 39 5 40 6 40 45 0 39
-1 40 -40 45 -39 5 -40 6 -40 45 l0 40 40 0 c39 0 40 -1 45 -40 5 -39 6 -40
45 -40 l40 0 5 85 5 85 40 0 40 0 5 -85 5 -85 40 0 c39 0 40 1 45 40 5 38 7
40 45 45 l40 5 5 85 5 85 40 0 c39 0 40 -1 45 -40 l5 -40 85 0 85 0 5 40 c5
38 7 40 45 45 l40 5 0 85 0 85 -85 0 -85 0 -5 -40 c-5 -39 -6 -40 -45 -40 -39
0 -40 1 -45 40 -5 38 -7 40 -45 45 l-40 5 -5 85 -5 85 -40 5 c-38 5 -40 7 -45
45 -5 38 -7 40 -45 45 -38 5 -40 7 -45 45 -5 39 -6 40 -45 40 l-40 0 -5 -85
-5 -85 -40 0 -40 0 -5 85 -5 85 -38 3 c-24 2 -39 -1 -42 -10z m350 -393 l0
-130 -130 0 -130 0 -3 119 c-1 66 0 126 2 133 4 11 34 13 133 11 l128 -3 0
-130z"/>
<path d="M1994 996 c-3 -8 -4 -27 -2 -43 3 -26 7 -28 43 -28 l40 0 0 40 c0 39
-1 40 -38 43 -26 2 -39 -1 -43 -12z"/>
<path d="M2444 1356 c-3 -8 -4 -27 -2 -43 3 -26 7 -28 43 -28 l40 0 0 40 c0
39 -1 40 -38 43 -26 2 -39 -1 -43 -12z"/>
<path d="M465 1268 c-2 -7 -5 -26 -7 -43 -3 -27 -7 -31 -43 -35 -39 -5 -40 -6
-40 -45 l0 -40 175 0 175 0 0 40 c0 39 -1 40 -40 45 -38 5 -40 7 -45 45 l-5
40 -83 3 c-60 2 -83 -1 -87 -10z"/>
<path d="M1454 1266 c-3 -8 -4 -27 -2 -43 3 -26 7 -28 43 -28 l40 0 0 40 c0
39 -1 40 -38 43 -26 2 -39 -1 -43 -12z"/>
<path d="M824 1176 c-3 -8 -4 -27 -2 -43 l3 -28 85 0 85 0 0 40 0 40 -83 3
c-65 2 -84 0 -88 -12z"/>
<path d="M1274 1176 c-3 -8 -4 -27 -2 -43 3 -26 7 -28 43 -28 l40 0 0 40 c0
39 -1 40 -38 43 -26 2 -39 -1 -43 -12z"/>
<path d="M1545 1178 c-2 -7 -5 -26 -7 -43 l-3 -30 -85 -5 -85 -5 -5 -40 c-5
-39 -6 -40 -45 -40 -39 0 -40 1 -45 40 l-5 40 -85 0 -85 0 0 -85 0 -85 40 -5
c38 -5 40 -7 45 -45 l5 -40 85 0 85 0 5 40 c5 39 6 40 45 40 39 0 40 -1 45
-40 5 -39 6 -40 45 -40 39 0 40 1 45 40 5 38 7 40 45 45 38 5 40 7 45 45 5 38
7 40 45 45 39 5 40 6 40 45 0 39 -1 40 -40 45 -38 5 -40 7 -45 45 -5 38 -7 40
-43 43 -24 2 -39 -1 -42 -10z"/>
<path d="M2534 1176 c-3 -8 -4 -27 -2 -43 3 -26 7 -28 43 -28 l40 0 0 40 c0
39 -1 40 -38 43 -26 2 -39 -1 -43 -12z"/>
<path d="M370 695 l0 -315 315 0 315 0 0 315 0 315 -315 0 -315 0 0 -315z
m540 0 l0 -225 -225 0 -225 0 0 225 0 225 225 0 225 0 0 -225z"/>
<path d="M550 695 l0 -135 135 0 135 0 0 135 0 135 -135 0 -135 0 0 -135z"/>
<path d="M1094 726 c-3 -8 -4 -27 -2 -43 3 -26 7 -28 43 -28 l40 0 0 40 c0 39
-1 40 -38 43 -26 2 -39 -1 -43 -12z"/>
<path d="M2265 638 c-2 -7 -6 -47 -7 -88 l-3 -75 -40 -5 c-39 -5 -40 -6 -40
-45 l0 -40 85 0 85 0 5 85 5 85 40 5 c39 5 40 6 40 45 l0 40 -83 3 c-60 2 -84
-1 -87 -10z"/>
<path d="M2535 638 c-2 -7 -5 -26 -7 -43 -3 -27 -7 -31 -43 -35 l-40 -5 0 -85
0 -85 85 0 85 0 0 130 0 130 -38 3 c-24 2 -39 -1 -42 -10z"/>
<path d="M1094 547 c-3 -8 -4 -47 -2 -88 l3 -74 40 0 40 0 0 85 0 85 -38 3
c-25 2 -39 -1 -43 -11z"/>
</g>
</svg>
